<svg xmlns="http://www.w3.org/2000/svg" viewBox="0 0 512 512">
  <rect width="512" height="512" rx="112" fill="#ffcc00"/>
  <rect x="48" y="48" width="416" height="416" rx="88" fill="#fff8e1" opacity=".28"/>
  <path d="M170 342h172c27 0 49-22 49-49H121c0 27 22 49 49 49Z" fill="#21170b"/>
  <path d="M144 271c8-55 54-97 112-97s104 42 112 97H144Z" fill="#21170b"/>
  <path d="M242 134h28v42h-28z" fill="#21170b"/>
  <path d="M212 130c0-24 19-43 44-43s44 19 44 43h-88Z" fill="#21170b"/>
  <path d="M137 373h238" stroke="#21170b" stroke-width="28" stroke-linecap="round"/>
  <circle cx="352" cy="164" r="22" fill="#08784f"/>
  <path d="M345 164h14m-7-7v14" stroke="#fff8e1" stroke-width="8" stroke-linecap="round"/>
</svg>
